<mxfile host="app.diagrams.net" modified="2022-05-27T11:53:05.392Z" agent="5.0 (Windows NT 10.0; Win64; x64) AppleWebKit/537.36 (KHTML, like Gecko) Chrome/101.0.0.0 Safari/537.36" etag="hJAqvjZl-hlSUV8J7F6D" version="18.1.3" type="github">
  <diagram id="YscDvSlWubainQox9Fi7" name="Page-1">
    <mxGraphModel dx="1038" dy="529" grid="1" gridSize="10" guides="1" tooltips="1" connect="1" arrows="1" fold="1" page="1" pageScale="1" pageWidth="827" pageHeight="1169" math="0" shadow="0">
      <root>
        <mxCell id="0" />
        <mxCell id="1" parent="0" />
        <mxCell id="mXBABJLFOL5zwvfrdwrO-172" value="" style="group" vertex="1" connectable="0" parent="1">
          <mxGeometry x="109.99999999999989" y="280" width="420.0000000000001" height="280" as="geometry" />
        </mxCell>
        <mxCell id="mXBABJLFOL5zwvfrdwrO-5" value="" style="rounded=1;whiteSpace=wrap;html=1;fontSize=18;" vertex="1" parent="mXBABJLFOL5zwvfrdwrO-172">
          <mxGeometry x="1.1368683772161603e-13" width="420" height="280" as="geometry" />
        </mxCell>
        <mxCell id="mXBABJLFOL5zwvfrdwrO-6" value="&lt;font style=&quot;font-size: 18px;&quot;&gt;内存&lt;/font&gt;" style="text;html=1;strokeColor=none;fillColor=none;align=center;verticalAlign=middle;whiteSpace=wrap;rounded=0;" vertex="1" parent="mXBABJLFOL5zwvfrdwrO-172">
          <mxGeometry x="178.0000000000001" width="70" height="40" as="geometry" />
        </mxCell>
        <mxCell id="mXBABJLFOL5zwvfrdwrO-76" value="" style="endArrow=none;dashed=1;html=1;rounded=0;fontSize=18;entryX=1.009;entryY=0.615;entryDx=0;entryDy=0;entryPerimeter=0;exitX=-0.007;exitY=0.609;exitDx=0;exitDy=0;exitPerimeter=0;" edge="1" parent="mXBABJLFOL5zwvfrdwrO-172" source="mXBABJLFOL5zwvfrdwrO-5" target="mXBABJLFOL5zwvfrdwrO-5">
          <mxGeometry width="50" height="50" relative="1" as="geometry">
            <mxPoint x="-10.319999999999823" y="169.68000000000006" as="sourcePoint" />
            <mxPoint x="432.32000000000005" y="170.51999999999998" as="targetPoint" />
          </mxGeometry>
        </mxCell>
        <mxCell id="mXBABJLFOL5zwvfrdwrO-78" value="" style="endArrow=none;dashed=1;html=1;rounded=0;fontSize=18;exitX=-0.003;exitY=0.606;exitDx=0;exitDy=0;exitPerimeter=0;" edge="1" parent="mXBABJLFOL5zwvfrdwrO-172">
          <mxGeometry width="50" height="50" relative="1" as="geometry">
            <mxPoint y="40.00000000000006" as="sourcePoint" />
            <mxPoint x="420.0000000000001" y="41" as="targetPoint" />
          </mxGeometry>
        </mxCell>
        <mxCell id="mXBABJLFOL5zwvfrdwrO-80" value="&lt;font style=&quot;font-size: 18px;&quot;&gt;图分区&lt;/font&gt;" style="text;html=1;strokeColor=none;fillColor=none;align=center;verticalAlign=middle;whiteSpace=wrap;rounded=0;" vertex="1" parent="mXBABJLFOL5zwvfrdwrO-172">
          <mxGeometry x="138.0000000000001" y="47" width="155" height="30" as="geometry" />
        </mxCell>
        <mxCell id="mXBABJLFOL5zwvfrdwrO-81" value="&lt;font style=&quot;font-size: 18px;&quot;&gt;输入输出边流&lt;/font&gt;" style="text;html=1;strokeColor=none;fillColor=none;align=center;verticalAlign=middle;whiteSpace=wrap;rounded=0;" vertex="1" parent="mXBABJLFOL5zwvfrdwrO-172">
          <mxGeometry x="102.75000000000011" y="170" width="212.5" height="30" as="geometry" />
        </mxCell>
        <mxCell id="mXBABJLFOL5zwvfrdwrO-135" value="" style="group" vertex="1" connectable="0" parent="mXBABJLFOL5zwvfrdwrO-172">
          <mxGeometry x="20.000000000000114" y="80" width="180" height="80" as="geometry" />
        </mxCell>
        <mxCell id="mXBABJLFOL5zwvfrdwrO-136" value="" style="rounded=1;whiteSpace=wrap;html=1;" vertex="1" parent="mXBABJLFOL5zwvfrdwrO-135">
          <mxGeometry width="180" height="80" as="geometry" />
        </mxCell>
        <mxCell id="mXBABJLFOL5zwvfrdwrO-137" value="" style="group" vertex="1" connectable="0" parent="mXBABJLFOL5zwvfrdwrO-135">
          <mxGeometry x="11.769230769230768" y="16" width="15.923076923076922" height="32" as="geometry" />
        </mxCell>
        <mxCell id="mXBABJLFOL5zwvfrdwrO-138" value="v&lt;sub&gt;0&lt;/sub&gt;" style="rounded=0;whiteSpace=wrap;html=1;fontSize=14;" vertex="1" parent="mXBABJLFOL5zwvfrdwrO-137">
          <mxGeometry width="15.923076923076922" height="16" as="geometry" />
        </mxCell>
        <mxCell id="mXBABJLFOL5zwvfrdwrO-139" value="v&lt;span style=&quot;font-size: 11.6667px;&quot;&gt;&lt;sub&gt;1&lt;/sub&gt;&lt;/span&gt;" style="rounded=0;whiteSpace=wrap;html=1;fontSize=14;" vertex="1" parent="mXBABJLFOL5zwvfrdwrO-137">
          <mxGeometry y="16" width="15.923076923076922" height="16" as="geometry" />
        </mxCell>
        <mxCell id="mXBABJLFOL5zwvfrdwrO-140" value="" style="curved=1;endArrow=classic;html=1;rounded=0;exitX=1;exitY=0.5;exitDx=0;exitDy=0;entryX=0;entryY=0.5;entryDx=0;entryDy=0;" edge="1" parent="mXBABJLFOL5zwvfrdwrO-135" source="mXBABJLFOL5zwvfrdwrO-138" target="mXBABJLFOL5zwvfrdwrO-141">
          <mxGeometry width="50" height="50" relative="1" as="geometry">
            <mxPoint x="186.9230769230769" y="-16" as="sourcePoint" />
            <mxPoint x="69.23076923076923" y="16" as="targetPoint" />
            <Array as="points">
              <mxPoint x="41.53846153846154" y="32" />
              <mxPoint x="48.46153846153846" y="16" />
            </Array>
          </mxGeometry>
        </mxCell>
        <mxCell id="mXBABJLFOL5zwvfrdwrO-141" value="v&lt;span style=&quot;font-size: 11.6667px;&quot;&gt;&lt;sub&gt;1&lt;/sub&gt;&lt;/span&gt;" style="rounded=0;whiteSpace=wrap;html=1;fontSize=14;" vertex="1" parent="mXBABJLFOL5zwvfrdwrO-135">
          <mxGeometry x="64.38461538461539" y="8" width="20.76923076923077" height="16" as="geometry" />
        </mxCell>
        <mxCell id="mXBABJLFOL5zwvfrdwrO-142" value="a" style="rounded=0;whiteSpace=wrap;html=1;fontSize=14;" vertex="1" parent="mXBABJLFOL5zwvfrdwrO-135">
          <mxGeometry x="85.15384615384615" y="8" width="20.76923076923077" height="16" as="geometry" />
        </mxCell>
        <mxCell id="mXBABJLFOL5zwvfrdwrO-143" value="" style="curved=1;endArrow=classic;html=1;rounded=0;exitX=1;exitY=0.5;exitDx=0;exitDy=0;entryX=0;entryY=0.5;entryDx=0;entryDy=0;" edge="1" parent="mXBABJLFOL5zwvfrdwrO-135" source="mXBABJLFOL5zwvfrdwrO-139" target="mXBABJLFOL5zwvfrdwrO-144">
          <mxGeometry width="50" height="50" relative="1" as="geometry">
            <mxPoint x="34.61538461538461" y="32" as="sourcePoint" />
            <mxPoint x="69.23076923076923" y="40" as="targetPoint" />
            <Array as="points">
              <mxPoint x="48.46153846153846" y="48" />
              <mxPoint x="55.38461538461538" y="32" />
            </Array>
          </mxGeometry>
        </mxCell>
        <mxCell id="mXBABJLFOL5zwvfrdwrO-144" value="v&lt;font size=&quot;1&quot;&gt;&lt;sub&gt;2&lt;/sub&gt;&lt;/font&gt;" style="rounded=0;whiteSpace=wrap;html=1;fontSize=14;" vertex="1" parent="mXBABJLFOL5zwvfrdwrO-135">
          <mxGeometry x="64.38461538461539" y="32" width="20.76923076923077" height="16" as="geometry" />
        </mxCell>
        <mxCell id="mXBABJLFOL5zwvfrdwrO-145" value="a" style="rounded=0;whiteSpace=wrap;html=1;fontSize=14;" vertex="1" parent="mXBABJLFOL5zwvfrdwrO-135">
          <mxGeometry x="85.15384615384615" y="32" width="20.76923076923077" height="16" as="geometry" />
        </mxCell>
        <mxCell id="mXBABJLFOL5zwvfrdwrO-146" value="" style="endArrow=classic;html=1;rounded=0;exitX=1;exitY=0.5;exitDx=0;exitDy=0;" edge="1" parent="mXBABJLFOL5zwvfrdwrO-135" source="mXBABJLFOL5zwvfrdwrO-142">
          <mxGeometry width="50" height="50" relative="1" as="geometry">
            <mxPoint x="138.46153846153845" y="40" as="sourcePoint" />
            <mxPoint x="124.61538461538458" y="16" as="targetPoint" />
          </mxGeometry>
        </mxCell>
        <mxCell id="mXBABJLFOL5zwvfrdwrO-147" value="v&lt;font size=&quot;1&quot;&gt;&lt;sub&gt;3&lt;/sub&gt;&lt;/font&gt;" style="rounded=0;whiteSpace=wrap;html=1;fontSize=14;" vertex="1" parent="mXBABJLFOL5zwvfrdwrO-135">
          <mxGeometry x="124.61538461538458" y="8" width="20.76923076923077" height="16" as="geometry" />
        </mxCell>
        <mxCell id="mXBABJLFOL5zwvfrdwrO-148" value="b" style="rounded=0;whiteSpace=wrap;html=1;fontSize=14;" vertex="1" parent="mXBABJLFOL5zwvfrdwrO-135">
          <mxGeometry x="145.38461538461536" y="8" width="20.76923076923077" height="16" as="geometry" />
        </mxCell>
        <mxCell id="mXBABJLFOL5zwvfrdwrO-149" value="v&lt;font size=&quot;1&quot;&gt;&lt;sub&gt;2&lt;/sub&gt;&lt;/font&gt;" style="rounded=0;whiteSpace=wrap;html=1;fontSize=14;" vertex="1" parent="mXBABJLFOL5zwvfrdwrO-135">
          <mxGeometry x="11.769230769230768" y="48" width="15.923076923076922" height="16" as="geometry" />
        </mxCell>
        <mxCell id="mXBABJLFOL5zwvfrdwrO-150" value="" style="group" vertex="1" connectable="0" parent="mXBABJLFOL5zwvfrdwrO-172">
          <mxGeometry x="220.0000000000001" y="80" width="180" height="80" as="geometry" />
        </mxCell>
        <mxCell id="mXBABJLFOL5zwvfrdwrO-151" value="" style="rounded=1;whiteSpace=wrap;html=1;" vertex="1" parent="mXBABJLFOL5zwvfrdwrO-150">
          <mxGeometry width="180" height="80" as="geometry" />
        </mxCell>
        <mxCell id="mXBABJLFOL5zwvfrdwrO-152" value="" style="group" vertex="1" connectable="0" parent="mXBABJLFOL5zwvfrdwrO-150">
          <mxGeometry x="11.76923076923077" y="13.944954128440367" width="15.923076923076925" height="44.03669724770642" as="geometry" />
        </mxCell>
        <mxCell id="mXBABJLFOL5zwvfrdwrO-153" value="v&lt;span style=&quot;font-size: 11.6667px;&quot;&gt;&lt;sub&gt;3&lt;/sub&gt;&lt;/span&gt;" style="rounded=0;whiteSpace=wrap;html=1;fontSize=14;" vertex="1" parent="mXBABJLFOL5zwvfrdwrO-152">
          <mxGeometry width="15.923076923076925" height="14.678899082568808" as="geometry" />
        </mxCell>
        <mxCell id="mXBABJLFOL5zwvfrdwrO-154" value="v&lt;font size=&quot;1&quot;&gt;&lt;sub&gt;4&lt;/sub&gt;&lt;/font&gt;" style="rounded=0;whiteSpace=wrap;html=1;fontSize=14;" vertex="1" parent="mXBABJLFOL5zwvfrdwrO-152">
          <mxGeometry y="14.678899082568808" width="15.923076923076925" height="14.678899082568808" as="geometry" />
        </mxCell>
        <mxCell id="mXBABJLFOL5zwvfrdwrO-155" value="v&lt;font size=&quot;1&quot;&gt;&lt;sub&gt;5&lt;/sub&gt;&lt;/font&gt;" style="rounded=0;whiteSpace=wrap;html=1;fontSize=14;" vertex="1" parent="mXBABJLFOL5zwvfrdwrO-152">
          <mxGeometry y="29.357798165137616" width="15.923076923076925" height="14.678899082568808" as="geometry" />
        </mxCell>
        <mxCell id="mXBABJLFOL5zwvfrdwrO-156" value="v&lt;font size=&quot;1&quot;&gt;&lt;sub&gt;2&lt;/sub&gt;&lt;/font&gt;" style="rounded=0;whiteSpace=wrap;html=1;fontSize=14;" vertex="1" parent="mXBABJLFOL5zwvfrdwrO-150">
          <mxGeometry x="62.307692307692314" y="10.275229357798166" width="20.76923076923077" height="14.678899082568808" as="geometry" />
        </mxCell>
        <mxCell id="mXBABJLFOL5zwvfrdwrO-157" value="c" style="rounded=0;whiteSpace=wrap;html=1;fontSize=14;" vertex="1" parent="mXBABJLFOL5zwvfrdwrO-150">
          <mxGeometry x="83.07692307692308" y="10.275229357798166" width="20.76923076923077" height="14.678899082568808" as="geometry" />
        </mxCell>
        <mxCell id="mXBABJLFOL5zwvfrdwrO-158" value="" style="curved=1;endArrow=classic;html=1;rounded=0;exitX=1;exitY=0.5;exitDx=0;exitDy=0;entryX=0;entryY=0.5;entryDx=0;entryDy=0;" edge="1" parent="mXBABJLFOL5zwvfrdwrO-150" source="mXBABJLFOL5zwvfrdwrO-153" target="mXBABJLFOL5zwvfrdwrO-156">
          <mxGeometry width="50" height="50" relative="1" as="geometry">
            <mxPoint x="34.61538461538461" y="-59.449541284403665" as="sourcePoint" />
            <mxPoint x="71.30769230769232" y="-66.78899082568807" as="targetPoint" />
            <Array as="points">
              <mxPoint x="41.53846153846154" y="28.623853211009173" />
              <mxPoint x="48.46153846153846" y="13.944954128440367" />
            </Array>
          </mxGeometry>
        </mxCell>
        <mxCell id="mXBABJLFOL5zwvfrdwrO-159" value="v&lt;span style=&quot;font-size: 8.33333px;&quot;&gt;&lt;sub&gt;4&lt;/sub&gt;&lt;/span&gt;" style="rounded=0;whiteSpace=wrap;html=1;fontSize=14;" vertex="1" parent="mXBABJLFOL5zwvfrdwrO-150">
          <mxGeometry x="124.61538461538463" y="10.275229357798166" width="20.76923076923077" height="14.678899082568808" as="geometry" />
        </mxCell>
        <mxCell id="mXBABJLFOL5zwvfrdwrO-160" style="edgeStyle=orthogonalEdgeStyle;rounded=0;orthogonalLoop=1;jettySize=auto;html=1;entryX=0;entryY=0.5;entryDx=0;entryDy=0;" edge="1" parent="mXBABJLFOL5zwvfrdwrO-150" source="mXBABJLFOL5zwvfrdwrO-157" target="mXBABJLFOL5zwvfrdwrO-159">
          <mxGeometry relative="1" as="geometry">
            <mxPoint x="124.61538461538463" y="17.614678899082566" as="targetPoint" />
          </mxGeometry>
        </mxCell>
        <mxCell id="mXBABJLFOL5zwvfrdwrO-161" value="a" style="rounded=0;whiteSpace=wrap;html=1;fontSize=14;" vertex="1" parent="mXBABJLFOL5zwvfrdwrO-150">
          <mxGeometry x="145.38461538461542" y="10.275229357798166" width="20.07692307692308" height="14.678899082568808" as="geometry" />
        </mxCell>
        <mxCell id="mXBABJLFOL5zwvfrdwrO-162" value="v&lt;span style=&quot;font-size: 8.33333px;&quot;&gt;&lt;sub&gt;5&lt;/sub&gt;&lt;/span&gt;" style="rounded=0;whiteSpace=wrap;html=1;fontSize=14;" vertex="1" parent="mXBABJLFOL5zwvfrdwrO-150">
          <mxGeometry x="62.307692307692314" y="33.02752293577982" width="20.76923076923077" height="14.678899082568808" as="geometry" />
        </mxCell>
        <mxCell id="mXBABJLFOL5zwvfrdwrO-163" value="" style="curved=1;endArrow=classic;html=1;rounded=0;exitX=1;exitY=0.5;exitDx=0;exitDy=0;entryX=0;entryY=0.5;entryDx=0;entryDy=0;" edge="1" parent="mXBABJLFOL5zwvfrdwrO-150" source="mXBABJLFOL5zwvfrdwrO-154" target="mXBABJLFOL5zwvfrdwrO-162">
          <mxGeometry width="50" height="50" relative="1" as="geometry">
            <mxPoint x="34.61538461538461" y="28.623853211009173" as="sourcePoint" />
            <mxPoint x="69.23076923076923" y="24.954128440366972" as="targetPoint" />
            <Array as="points">
              <mxPoint x="41.53846153846154" y="43.30275229357798" />
              <mxPoint x="48.46153846153846" y="35.96330275229358" />
            </Array>
          </mxGeometry>
        </mxCell>
        <mxCell id="mXBABJLFOL5zwvfrdwrO-164" value="b" style="rounded=0;whiteSpace=wrap;html=1;fontSize=14;" vertex="1" parent="mXBABJLFOL5zwvfrdwrO-150">
          <mxGeometry x="83.07692307692308" y="33.02752293577982" width="20.76923076923077" height="14.678899082568808" as="geometry" />
        </mxCell>
        <mxCell id="mXBABJLFOL5zwvfrdwrO-165" value="v&lt;span style=&quot;font-size: 8.33333px;&quot;&gt;&lt;sub&gt;1&lt;/sub&gt;&lt;/span&gt;" style="rounded=0;whiteSpace=wrap;html=1;fontSize=14;" vertex="1" parent="mXBABJLFOL5zwvfrdwrO-150">
          <mxGeometry x="62.307692307692314" y="57.98165137614679" width="20.76923076923077" height="14.678899082568808" as="geometry" />
        </mxCell>
        <mxCell id="mXBABJLFOL5zwvfrdwrO-166" value="" style="curved=1;endArrow=classic;html=1;rounded=0;exitX=1;exitY=0.5;exitDx=0;exitDy=0;entryX=0;entryY=0.5;entryDx=0;entryDy=0;" edge="1" parent="mXBABJLFOL5zwvfrdwrO-150" source="mXBABJLFOL5zwvfrdwrO-155" target="mXBABJLFOL5zwvfrdwrO-165">
          <mxGeometry width="50" height="50" relative="1" as="geometry">
            <mxPoint x="34.61538461538461" y="28.623853211009173" as="sourcePoint" />
            <mxPoint x="69.23076923076923" y="24.954128440366972" as="targetPoint" />
            <Array as="points">
              <mxPoint x="34.61538461538461" y="65.3211009174312" />
              <mxPoint x="48.46153846153846" y="50.642201834862384" />
            </Array>
          </mxGeometry>
        </mxCell>
        <mxCell id="mXBABJLFOL5zwvfrdwrO-167" value="b" style="rounded=0;whiteSpace=wrap;html=1;fontSize=14;" vertex="1" parent="mXBABJLFOL5zwvfrdwrO-150">
          <mxGeometry x="83.07692307692308" y="57.98165137614679" width="20.76923076923077" height="14.678899082568808" as="geometry" />
        </mxCell>
        <mxCell id="mXBABJLFOL5zwvfrdwrO-168" value="v&lt;span style=&quot;font-size: 6.94444px;&quot;&gt;&lt;sub&gt;2&lt;/sub&gt;&lt;/span&gt;" style="rounded=0;whiteSpace=wrap;html=1;fontSize=14;" vertex="1" parent="mXBABJLFOL5zwvfrdwrO-150">
          <mxGeometry x="124.61538461538463" y="57.98165137614679" width="20.76923076923077" height="14.678899082568808" as="geometry" />
        </mxCell>
        <mxCell id="mXBABJLFOL5zwvfrdwrO-169" style="edgeStyle=orthogonalEdgeStyle;rounded=0;orthogonalLoop=1;jettySize=auto;html=1;exitX=1;exitY=0.5;exitDx=0;exitDy=0;entryX=0;entryY=0.5;entryDx=0;entryDy=0;" edge="1" parent="mXBABJLFOL5zwvfrdwrO-150" source="mXBABJLFOL5zwvfrdwrO-167" target="mXBABJLFOL5zwvfrdwrO-168">
          <mxGeometry relative="1" as="geometry">
            <mxPoint x="124.61538461538463" y="65.3211009174312" as="targetPoint" />
          </mxGeometry>
        </mxCell>
        <mxCell id="mXBABJLFOL5zwvfrdwrO-170" value="c" style="rounded=0;whiteSpace=wrap;html=1;fontSize=14;" vertex="1" parent="mXBABJLFOL5zwvfrdwrO-150">
          <mxGeometry x="145.38461538461542" y="57.98165137614679" width="20.76923076923077" height="14.678899082568808" as="geometry" />
        </mxCell>
        <mxCell id="mXBABJLFOL5zwvfrdwrO-83" value="" style="group" vertex="1" connectable="0" parent="mXBABJLFOL5zwvfrdwrO-172">
          <mxGeometry x="46.000000000000114" y="208.17000000000002" width="100" height="60" as="geometry" />
        </mxCell>
        <mxCell id="mXBABJLFOL5zwvfrdwrO-84" value="v&lt;sub&gt;0&lt;/sub&gt;" style="rounded=0;whiteSpace=wrap;html=1;fontSize=14;" vertex="1" parent="mXBABJLFOL5zwvfrdwrO-83">
          <mxGeometry y="20" width="27.083333333333332" height="20" as="geometry" />
        </mxCell>
        <mxCell id="mXBABJLFOL5zwvfrdwrO-85" value="v&lt;span style=&quot;font-size: 11.6667px;&quot;&gt;&lt;sub&gt;1&lt;/sub&gt;&lt;/span&gt;" style="rounded=0;whiteSpace=wrap;html=1;fontSize=14;" vertex="1" parent="mXBABJLFOL5zwvfrdwrO-83">
          <mxGeometry x="27.083333333333332" y="20" width="31.25" height="20" as="geometry" />
        </mxCell>
        <mxCell id="mXBABJLFOL5zwvfrdwrO-86" value="a" style="rounded=0;whiteSpace=wrap;html=1;fontSize=14;" vertex="1" parent="mXBABJLFOL5zwvfrdwrO-83">
          <mxGeometry x="58.33333333333332" y="20" width="41.666666666666664" height="20" as="geometry" />
        </mxCell>
        <mxCell id="mXBABJLFOL5zwvfrdwrO-87" value="v&lt;sub&gt;0&lt;/sub&gt;" style="rounded=0;whiteSpace=wrap;html=1;fontSize=14;" vertex="1" parent="mXBABJLFOL5zwvfrdwrO-83">
          <mxGeometry y="40" width="27.083333333333332" height="20" as="geometry" />
        </mxCell>
        <mxCell id="mXBABJLFOL5zwvfrdwrO-88" value="v&lt;font size=&quot;1&quot;&gt;&lt;sub&gt;3&lt;/sub&gt;&lt;/font&gt;" style="rounded=0;whiteSpace=wrap;html=1;fontSize=14;" vertex="1" parent="mXBABJLFOL5zwvfrdwrO-83">
          <mxGeometry x="27.083333333333332" y="40" width="31.25" height="20" as="geometry" />
        </mxCell>
        <mxCell id="mXBABJLFOL5zwvfrdwrO-89" value="b" style="rounded=0;whiteSpace=wrap;html=1;fontSize=14;" vertex="1" parent="mXBABJLFOL5zwvfrdwrO-83">
          <mxGeometry x="58.33333333333332" y="40" width="41.666666666666664" height="20" as="geometry" />
        </mxCell>
        <mxCell id="mXBABJLFOL5zwvfrdwrO-90" value="src" style="rounded=0;whiteSpace=wrap;html=1;fontSize=14;fillColor=#d5e8d4;strokeColor=#000000;gradientColor=none;" vertex="1" parent="mXBABJLFOL5zwvfrdwrO-83">
          <mxGeometry width="27.083333333333332" height="20" as="geometry" />
        </mxCell>
        <mxCell id="mXBABJLFOL5zwvfrdwrO-91" value="dst" style="rounded=0;whiteSpace=wrap;html=1;fontSize=14;fillColor=#d5e8d4;strokeColor=#000000;" vertex="1" parent="mXBABJLFOL5zwvfrdwrO-83">
          <mxGeometry x="27.083333333333332" width="31.25" height="20" as="geometry" />
        </mxCell>
        <mxCell id="mXBABJLFOL5zwvfrdwrO-92" value="label" style="rounded=0;whiteSpace=wrap;html=1;fontSize=14;fillColor=#d5e8d4;strokeColor=#000000;gradientColor=none;" vertex="1" parent="mXBABJLFOL5zwvfrdwrO-83">
          <mxGeometry x="58.33333333333332" width="41.666666666666664" height="20" as="geometry" />
        </mxCell>
        <mxCell id="mXBABJLFOL5zwvfrdwrO-119" value="" style="group" vertex="1" connectable="0" parent="mXBABJLFOL5zwvfrdwrO-172">
          <mxGeometry x="260.0000000000001" y="210" width="110" height="60" as="geometry" />
        </mxCell>
        <mxCell id="mXBABJLFOL5zwvfrdwrO-120" value="v&lt;span style=&quot;font-size: 11.6667px;&quot;&gt;&lt;sub&gt;3&lt;/sub&gt;&lt;/span&gt;" style="rounded=0;whiteSpace=wrap;html=1;fontSize=14;" vertex="1" parent="mXBABJLFOL5zwvfrdwrO-119">
          <mxGeometry y="20" width="29.791666666666657" height="20" as="geometry" />
        </mxCell>
        <mxCell id="mXBABJLFOL5zwvfrdwrO-121" value="v&lt;font size=&quot;1&quot;&gt;&lt;sub&gt;2&lt;/sub&gt;&lt;/font&gt;" style="rounded=0;whiteSpace=wrap;html=1;fontSize=14;" vertex="1" parent="mXBABJLFOL5zwvfrdwrO-119">
          <mxGeometry x="29.791666666666657" y="20" width="34.375" height="20" as="geometry" />
        </mxCell>
        <mxCell id="mXBABJLFOL5zwvfrdwrO-122" value="a" style="rounded=0;whiteSpace=wrap;html=1;fontSize=14;" vertex="1" parent="mXBABJLFOL5zwvfrdwrO-119">
          <mxGeometry x="64.16666666666666" y="20" width="45.83333333333332" height="20" as="geometry" />
        </mxCell>
        <mxCell id="mXBABJLFOL5zwvfrdwrO-123" value="v&lt;span style=&quot;font-size: 11.6667px;&quot;&gt;&lt;sub&gt;3&lt;/sub&gt;&lt;/span&gt;" style="rounded=0;whiteSpace=wrap;html=1;fontSize=14;" vertex="1" parent="mXBABJLFOL5zwvfrdwrO-119">
          <mxGeometry y="40" width="29.791666666666657" height="20" as="geometry" />
        </mxCell>
        <mxCell id="mXBABJLFOL5zwvfrdwrO-124" value="v&lt;span style=&quot;font-size: 8.33333px;&quot;&gt;&lt;sub&gt;4&lt;/sub&gt;&lt;/span&gt;" style="rounded=0;whiteSpace=wrap;html=1;fontSize=14;" vertex="1" parent="mXBABJLFOL5zwvfrdwrO-119">
          <mxGeometry x="29.791666666666657" y="40" width="34.375" height="20" as="geometry" />
        </mxCell>
        <mxCell id="mXBABJLFOL5zwvfrdwrO-125" value="b" style="rounded=0;whiteSpace=wrap;html=1;fontSize=14;" vertex="1" parent="mXBABJLFOL5zwvfrdwrO-119">
          <mxGeometry x="64.16666666666666" y="40" width="45.83333333333332" height="20" as="geometry" />
        </mxCell>
        <mxCell id="mXBABJLFOL5zwvfrdwrO-126" value="src" style="rounded=0;whiteSpace=wrap;html=1;fontSize=14;fillColor=#d5e8d4;strokeColor=#000000;gradientColor=none;" vertex="1" parent="mXBABJLFOL5zwvfrdwrO-119">
          <mxGeometry width="29.791666666666657" height="20" as="geometry" />
        </mxCell>
        <mxCell id="mXBABJLFOL5zwvfrdwrO-127" value="dst" style="rounded=0;whiteSpace=wrap;html=1;fontSize=14;fillColor=#d5e8d4;strokeColor=#000000;" vertex="1" parent="mXBABJLFOL5zwvfrdwrO-119">
          <mxGeometry x="29.791666666666657" width="34.375" height="20" as="geometry" />
        </mxCell>
        <mxCell id="mXBABJLFOL5zwvfrdwrO-128" value="label" style="rounded=0;whiteSpace=wrap;html=1;fontSize=14;fillColor=#d5e8d4;strokeColor=#000000;gradientColor=none;" vertex="1" parent="mXBABJLFOL5zwvfrdwrO-119">
          <mxGeometry x="64.16666666666666" width="45.83333333333332" height="20" as="geometry" />
        </mxCell>
        <mxCell id="mXBABJLFOL5zwvfrdwrO-171" value="......." style="text;html=1;strokeColor=none;fillColor=none;align=center;verticalAlign=middle;whiteSpace=wrap;rounded=0;fontSize=18;" vertex="1" parent="mXBABJLFOL5zwvfrdwrO-172">
          <mxGeometry x="170.0000000000001" y="223.16999999999996" width="60" height="30" as="geometry" />
        </mxCell>
        <mxCell id="mXBABJLFOL5zwvfrdwrO-173" value="" style="group" vertex="1" connectable="0" parent="1">
          <mxGeometry x="170" y="40" width="260" height="130" as="geometry" />
        </mxCell>
        <mxCell id="mXBABJLFOL5zwvfrdwrO-1" value="" style="rounded=1;whiteSpace=wrap;html=1;" vertex="1" parent="mXBABJLFOL5zwvfrdwrO-173">
          <mxGeometry width="260" height="130" as="geometry" />
        </mxCell>
        <mxCell id="mXBABJLFOL5zwvfrdwrO-2" value="&lt;font style=&quot;font-size: 18px;&quot;&gt;CPU&lt;/font&gt;" style="text;html=1;strokeColor=none;fillColor=none;align=center;verticalAlign=middle;whiteSpace=wrap;rounded=0;" vertex="1" parent="mXBABJLFOL5zwvfrdwrO-173">
          <mxGeometry x="100" width="60" height="30" as="geometry" />
        </mxCell>
        <mxCell id="mXBABJLFOL5zwvfrdwrO-3" value="&lt;font style=&quot;font-size: 18px;&quot;&gt;调度模块&lt;/font&gt;" style="rounded=0;whiteSpace=wrap;html=1;fillColor=#ffe6cc;strokeColor=#d79b00;" vertex="1" parent="mXBABJLFOL5zwvfrdwrO-173">
          <mxGeometry x="146" y="50" width="102" height="60" as="geometry" />
        </mxCell>
        <mxCell id="mXBABJLFOL5zwvfrdwrO-224" style="edgeStyle=orthogonalEdgeStyle;rounded=0;orthogonalLoop=1;jettySize=auto;html=1;exitX=1;exitY=0.5;exitDx=0;exitDy=0;entryX=0;entryY=0.5;entryDx=0;entryDy=0;fontSize=18;endArrow=classic;endFill=1;strokeWidth=1;startArrow=classic;startFill=1;" edge="1" parent="mXBABJLFOL5zwvfrdwrO-173" source="mXBABJLFOL5zwvfrdwrO-4" target="mXBABJLFOL5zwvfrdwrO-3">
          <mxGeometry relative="1" as="geometry" />
        </mxCell>
        <mxCell id="mXBABJLFOL5zwvfrdwrO-4" value="&lt;font style=&quot;font-size: 18px;&quot;&gt;Merge模块&lt;/font&gt;" style="rounded=0;whiteSpace=wrap;html=1;fillColor=#ffe6cc;strokeColor=#d79b00;" vertex="1" parent="mXBABJLFOL5zwvfrdwrO-173">
          <mxGeometry x="10" y="50" width="110" height="60" as="geometry" />
        </mxCell>
        <mxCell id="mXBABJLFOL5zwvfrdwrO-177" value="FPGA加速阵列" style="text;html=1;strokeColor=none;fillColor=none;align=center;verticalAlign=middle;whiteSpace=wrap;rounded=0;fontSize=18;" vertex="1" parent="1">
          <mxGeometry x="712.5" y="105" width="140" height="30" as="geometry" />
        </mxCell>
        <mxCell id="mXBABJLFOL5zwvfrdwrO-179" value="" style="rounded=1;whiteSpace=wrap;html=1;fontSize=18;" vertex="1" parent="1">
          <mxGeometry x="670" y="145" width="225" height="160" as="geometry" />
        </mxCell>
        <mxCell id="mXBABJLFOL5zwvfrdwrO-191" style="edgeStyle=orthogonalEdgeStyle;rounded=0;orthogonalLoop=1;jettySize=auto;html=1;exitX=1;exitY=0.5;exitDx=0;exitDy=0;entryX=0;entryY=0.5;entryDx=0;entryDy=0;fontSize=18;strokeWidth=2;endArrow=none;endFill=0;" edge="1" parent="1" source="mXBABJLFOL5zwvfrdwrO-180" target="mXBABJLFOL5zwvfrdwrO-181">
          <mxGeometry relative="1" as="geometry" />
        </mxCell>
        <mxCell id="mXBABJLFOL5zwvfrdwrO-194" style="edgeStyle=orthogonalEdgeStyle;rounded=0;orthogonalLoop=1;jettySize=auto;html=1;exitX=0.5;exitY=1;exitDx=0;exitDy=0;entryX=0.5;entryY=0;entryDx=0;entryDy=0;fontSize=18;strokeWidth=2;endArrow=none;endFill=0;" edge="1" parent="1" source="mXBABJLFOL5zwvfrdwrO-180" target="mXBABJLFOL5zwvfrdwrO-182">
          <mxGeometry relative="1" as="geometry" />
        </mxCell>
        <mxCell id="mXBABJLFOL5zwvfrdwrO-180" value="Match" style="rounded=0;whiteSpace=wrap;html=1;fontSize=18;" vertex="1" parent="1">
          <mxGeometry x="692" y="175" width="70" height="40" as="geometry" />
        </mxCell>
        <mxCell id="mXBABJLFOL5zwvfrdwrO-195" style="edgeStyle=orthogonalEdgeStyle;rounded=0;orthogonalLoop=1;jettySize=auto;html=1;exitX=0.5;exitY=1;exitDx=0;exitDy=0;entryX=0.5;entryY=0;entryDx=0;entryDy=0;fontSize=18;strokeWidth=2;endArrow=none;endFill=0;" edge="1" parent="1" source="mXBABJLFOL5zwvfrdwrO-181" target="mXBABJLFOL5zwvfrdwrO-183">
          <mxGeometry relative="1" as="geometry" />
        </mxCell>
        <mxCell id="mXBABJLFOL5zwvfrdwrO-181" value="Match" style="rounded=0;whiteSpace=wrap;html=1;fontSize=18;" vertex="1" parent="1">
          <mxGeometry x="800" y="175" width="70" height="40" as="geometry" />
        </mxCell>
        <mxCell id="mXBABJLFOL5zwvfrdwrO-193" style="edgeStyle=orthogonalEdgeStyle;rounded=0;orthogonalLoop=1;jettySize=auto;html=1;exitX=1;exitY=0.5;exitDx=0;exitDy=0;fontSize=18;strokeWidth=2;endArrow=none;endFill=0;" edge="1" parent="1" source="mXBABJLFOL5zwvfrdwrO-182" target="mXBABJLFOL5zwvfrdwrO-183">
          <mxGeometry relative="1" as="geometry" />
        </mxCell>
        <mxCell id="mXBABJLFOL5zwvfrdwrO-182" value="Match" style="rounded=0;whiteSpace=wrap;html=1;fontSize=18;" vertex="1" parent="1">
          <mxGeometry x="692" y="235" width="70" height="40" as="geometry" />
        </mxCell>
        <mxCell id="mXBABJLFOL5zwvfrdwrO-183" value="Match" style="rounded=0;whiteSpace=wrap;html=1;fontSize=18;" vertex="1" parent="1">
          <mxGeometry x="800" y="235" width="70" height="40" as="geometry" />
        </mxCell>
        <mxCell id="mXBABJLFOL5zwvfrdwrO-215" value="" style="shape=flexArrow;endArrow=classic;html=1;rounded=0;fontSize=18;strokeWidth=1;exitX=0.5;exitY=1;exitDx=0;exitDy=0;entryX=0.75;entryY=0;entryDx=0;entryDy=0;" edge="1" parent="1" source="mXBABJLFOL5zwvfrdwrO-3" target="mXBABJLFOL5zwvfrdwrO-5">
          <mxGeometry width="50" height="50" relative="1" as="geometry">
            <mxPoint x="410" y="250" as="sourcePoint" />
            <mxPoint x="460" y="200" as="targetPoint" />
          </mxGeometry>
        </mxCell>
        <mxCell id="mXBABJLFOL5zwvfrdwrO-216" value="&lt;div style=&quot;&quot;&gt;&lt;span style=&quot;background-color: initial;&quot;&gt;（1）为FPGA的&lt;/span&gt;&lt;/div&gt;&lt;div style=&quot;&quot;&gt;&lt;span style=&quot;background-color: initial;&quot;&gt;输入和输出图数据分配空间和初始化&lt;/span&gt;&lt;/div&gt;" style="text;html=1;strokeColor=none;fillColor=none;align=center;verticalAlign=middle;whiteSpace=wrap;rounded=0;fontSize=18;" vertex="1" parent="1">
          <mxGeometry x="390" y="200" width="150" height="35" as="geometry" />
        </mxCell>
        <mxCell id="mXBABJLFOL5zwvfrdwrO-217" value="" style="shape=flexArrow;endArrow=classic;html=1;rounded=0;fontSize=18;strokeWidth=1;exitX=1;exitY=0.75;exitDx=0;exitDy=0;entryX=0;entryY=0.25;entryDx=0;entryDy=0;" edge="1" parent="1" source="mXBABJLFOL5zwvfrdwrO-3" target="mXBABJLFOL5zwvfrdwrO-179">
          <mxGeometry width="50" height="50" relative="1" as="geometry">
            <mxPoint x="560" y="120" as="sourcePoint" />
            <mxPoint x="610" y="70" as="targetPoint" />
          </mxGeometry>
        </mxCell>
        <mxCell id="mXBABJLFOL5zwvfrdwrO-218" value="（2）将图数据存储信息写入加速器的控制寄存器" style="text;html=1;strokeColor=none;fillColor=none;align=center;verticalAlign=middle;whiteSpace=wrap;rounded=0;fontSize=18;" vertex="1" parent="1">
          <mxGeometry x="480" y="105" width="165" height="30" as="geometry" />
        </mxCell>
        <mxCell id="mXBABJLFOL5zwvfrdwrO-219" value="" style="shape=flexArrow;endArrow=classic;startArrow=classic;html=1;rounded=0;fontSize=18;strokeWidth=1;exitX=1;exitY=0.75;exitDx=0;exitDy=0;" edge="1" parent="1" source="mXBABJLFOL5zwvfrdwrO-5" target="mXBABJLFOL5zwvfrdwrO-179">
          <mxGeometry width="100" height="100" relative="1" as="geometry">
            <mxPoint x="640" y="460" as="sourcePoint" />
            <mxPoint x="740" y="360" as="targetPoint" />
          </mxGeometry>
        </mxCell>
        <mxCell id="mXBABJLFOL5zwvfrdwrO-220" value="（3）Match阶段：加速器从内存读取边数据，枚举边对，匹配产生式，将新增传递边写回内存" style="text;html=1;strokeColor=none;fillColor=none;align=center;verticalAlign=middle;whiteSpace=wrap;rounded=0;fontSize=18;" vertex="1" parent="1">
          <mxGeometry x="618.25" y="383" width="217.5" height="74" as="geometry" />
        </mxCell>
        <mxCell id="mXBABJLFOL5zwvfrdwrO-222" value="" style="shape=flexArrow;endArrow=classic;startArrow=classic;html=1;rounded=0;fontSize=18;strokeWidth=1;entryX=0.5;entryY=1;entryDx=0;entryDy=0;exitX=0.25;exitY=0;exitDx=0;exitDy=0;" edge="1" parent="1" source="mXBABJLFOL5zwvfrdwrO-5" target="mXBABJLFOL5zwvfrdwrO-4">
          <mxGeometry width="100" height="100" relative="1" as="geometry">
            <mxPoint x="220" y="280" as="sourcePoint" />
            <mxPoint x="320" y="200" as="targetPoint" />
          </mxGeometry>
        </mxCell>
        <mxCell id="mXBABJLFOL5zwvfrdwrO-223" value="（4）Merge阶段：读取FPGA输出，去除重复边后更新图分区" style="text;html=1;strokeColor=none;fillColor=none;align=center;verticalAlign=middle;whiteSpace=wrap;rounded=0;fontSize=18;" vertex="1" parent="1">
          <mxGeometry x="50" y="180.5" width="177.5" height="74" as="geometry" />
        </mxCell>
      </root>
    </mxGraphModel>
  </diagram>
</mxfile>
